<?xml version="1.0" encoding="UTF-8" standalone="no"?>
<svg
   xmlns:dc="http://purl.org/dc/elements/1.1/"
   xmlns:cc="http://creativecommons.org/ns#"
   xmlns:rdf="http://www.w3.org/1999/02/22-rdf-syntax-ns#"
   xmlns:svg="http://www.w3.org/2000/svg"
   xmlns="http://www.w3.org/2000/svg"
   width="580mm"
   height="150mm"
   viewBox="0 0 580 150"
   version="1.1"
   id="svg977">
  <defs
     id="defs971" />
  <metadata
     id="metadata974">
    <rdf:RDF>
      <cc:Work
         rdf:about="">
        <dc:format>image/svg+xml</dc:format>
        <dc:type
           rdf:resource="http://purl.org/dc/dcmitype/StillImage" />
        <dc:title></dc:title>
      </cc:Work>
    </rdf:RDF>
  </metadata>
  <g
     id="layer1">
    <g
       id="g194"
       transform="matrix(0.10823681,0,0,-0.10823681,-1501.7966,1740.5928)">
      <path
         d="m 16176.2,15525 c 14,8.5 28.9,12.7 44.5,12.7 20.9,0 39.3,-6.5 55.3,-19.5 16,-13.1 24,-29.7 24,-49.9 0,-12.4 -3.3,-25.2 -9.8,-38.2 l -175.2,-341.6 c -7.8,-15.7 -20.4,-27.9 -37.6,-36.7 -17.4,-8.8 -35.8,-13.2 -55.4,-13.2 -19.5,0 -37,4.2 -52.3,12.7 -15.4,8.5 -25.3,20.6 -29.9,36.2 l -63.6,195.8 -91,-194.8 c -7.9,-16.3 -20.1,-28.7 -36.7,-37.2 -16.7,-8.5 -35.1,-12.7 -55.3,-12.7 -19.6,0 -37.2,4.2 -52.9,12.7 -15.6,8.5 -26.1,20.6 -31.3,36.2 l -117.4,342.6 c -3.3,11.1 -5,20.2 -5,27.4 0,23.5 9.5,42.9 28.4,58.2 19,15.4 40.2,23 63.6,23 15.7,0 29.7,-4.2 42.2,-12.7 12.3,-8.5 21.1,-20.9 26.4,-37.2 l 70.5,-234.9 109.6,233.9 c 7.1,15.7 17.4,27.8 30.8,36.3 13.4,8.4 27.5,12.7 42.6,12.7 14.3,0 27.5,-4.3 39.6,-12.7 12.1,-8.5 20.4,-20.6 25,-36.3 l 70.4,-234.9 108.7,234.9 c 7.2,16.3 17.8,28.8 31.8,37.2"
         style="fill:#b71c2d;fill-opacity:1;fill-rule:nonzero;stroke:none"
         id="path196" />
    </g>
    <g
       id="g198"
       transform="matrix(0.11149965,0,0,-0.11149965,-1501.7966,1740.5928)">
      <path
         d="m 16036.3,14949.6 c -13.6,-13.7 -22.6,-34.7 -27.1,-63.2 h 151.1 c -0.6,27.2 -6.8,48 -18.5,62.2 -11.7,14.3 -28.7,21.4 -50.8,21.4 -22.9,0 -41,-6.8 -54.7,-20.4 z m 251.8,-131.1 c -7.9,-8 -18.9,-11.9 -32.8,-11.9 h -248 c 7.7,-57 42.2,-85.5 103.6,-85.5 18.4,0 33.6,1.7 45.6,5.2 12,3.5 27.9,9.3 47.5,17.6 11.4,5 21.2,7.6 29.5,7.6 13.9,0 24.8,-5.4 32.8,-16.2 7.9,-10.8 11.8,-23.7 11.8,-38.9 0,-13.3 -2.8,-26 -8.5,-38 -5.7,-12.1 -14.6,-21.6 -26.6,-28.5 -16.5,-9.5 -37.5,-17.3 -63.2,-23.3 -25.7,-6 -52.7,-9.1 -81.2,-9.1 -50.1,0 -94.3,9.5 -132.6,28.6 -38.3,19 -68.1,45.7 -89.3,80.3 -21.2,34.5 -31.8,74.8 -31.8,121.1 0,48.8 10.3,92.6 30.8,131.6 20.6,38.9 49.3,69.5 86,91.6 36.8,22.2 77.9,33.3 123.6,33.3 67.7,0 120.4,-20.4 158.2,-61.3 37.6,-40.8 56.5,-98 56.5,-171.5 0,-13.9 -4,-24.8 -11.9,-32.7"
         style="fill:#b71c2d;fill-opacity:1;fill-rule:nonzero;stroke:none"
         id="path200" />
    </g>
    <g
       id="g202"
       transform="matrix(0.11433986,0,0,-0.11433986,-1501.7966,1740.5928)">
      <path
         d="m 16274.1,14342.4 c 6.7,-9.2 10.1,-21.3 10.1,-36.1 0,-26.6 -8.4,-45.1 -25.5,-55.6 -17,-10.5 -46.4,-15.8 -88.4,-15.8 -57.5,0 -101.3,14.1 -131.6,42.2 -30.3,28.1 -45.4,69 -45.4,122.8 0,12.3 0.3,21.6 0.9,27.8 l 12.1,149.1 h -26.9 c -22.2,0 -39.5,5 -51.9,14.9 -12.3,9.8 -18.5,24 -18.5,42.6 0,42.6 26.9,63.9 80.6,63.9 h 26.9 l 4.6,60.2 c 1.9,24.1 10.8,43 26.9,56.6 16,13.5 36.7,20.4 62,20.4 25.4,0 44.8,-6.9 58.4,-20.4 13.6,-13.6 19.5,-32.2 17.6,-55.6 l -4.6,-61.2 h 50 c 21.6,0 38.5,-4.9 50.5,-14.8 12.1,-9.9 18.1,-23.8 18.1,-41.7 0,-22.2 -6.4,-38.6 -19,-49.1 -12.7,-10.5 -32.6,-15.8 -59.8,-15.8 h -50 l -12,-150.1 c -0.7,-3.7 -1,-8.6 -1,-14.8 0,-38.9 17,-58.4 51,-58.4 l 18.5,1 c 9.9,1.2 16.7,1.8 20.4,1.8 10.5,0 19.1,-4.6 26,-13.9"
         style="fill:#b71c2d;fill-opacity:1;fill-rule:nonzero;stroke:none"
         id="path204" />
    </g>
    <g
       id="g206"
       transform="matrix(0.11719701,0,0,-0.11719701,-1501.7966,1740.5928)">
      <path
         d="m 16284.5,14334.4 c 11.1,-10.8 15.5,-27.1 13.1,-48.8 -2.4,-24.1 -9.6,-41.5 -21.7,-52.4 -12.1,-10.8 -33.1,-17.8 -63.3,-20.8 l -24.4,-2.7 c -33.7,-4.2 -56.9,-12.8 -69.6,-25.8 -12.6,-12.9 -20.5,-34.8 -23.5,-65.5 l -12.6,-154.6 c -1.8,-24.1 -10.7,-42.5 -26.7,-55.1 -16,-12.7 -35.4,-19 -58.3,-19 -22.9,0 -41.7,6.3 -56.5,19 -14.8,12.6 -21.2,31 -19.4,55.1 l 25.3,311.9 c 2.4,23.5 11.9,41.6 28.5,54.2 16.5,12.7 35.7,19 57.4,19 21,0 37.8,-5.9 50.1,-17.6 12.4,-11.8 18.3,-28.5 17.6,-50.2 16.9,19.9 37,35.7 60.2,47.5 23.2,11.7 45.6,18.2 67.3,19.4 l 10.9,0.9 c 19.2,1.2 34.5,-3.6 45.6,-14.5"
         style="fill:#b71c2d;fill-opacity:1;fill-rule:nonzero;stroke:none"
         id="path208" />
    </g>
    <g
       id="g210"
       transform="matrix(0.12061578,0,0,-0.12061578,-1501.7966,1740.5928)">
      <path
         d="m 16282.3,13922.9 c 12.6,-12.9 17.7,-30.5 15.4,-52.7 l -23.8,-303 c -1.7,-21.1 -10.1,-38.3 -25,-51.4 -14.9,-13.2 -34.4,-19.8 -58.4,-19.8 -19.9,0 -36,5 -48.3,15 -12.3,9.9 -19,23.4 -20.2,40.4 -15.2,-17.6 -34.7,-31.5 -58.4,-41.8 -23.7,-10.2 -49.4,-15.3 -76.8,-15.3 -46.9,0 -82.6,13.3 -107.2,39.9 -24.6,26.7 -36.9,65.5 -36.9,116.4 0,6.4 0.6,16.7 1.8,30.7 l 14.9,188.9 c 1.7,22.2 10.2,39.8 25.5,52.7 15.2,12.9 35.1,19.3 59.7,19.3 24,0 42.3,-6.4 54.9,-19.3 12.6,-12.9 18,-30.5 16.2,-52.7 l -14.9,-180.1 -0.9,-13.2 c 0,-20.5 4.7,-36.1 14.1,-46.9 9.3,-10.9 23.1,-16.3 41.3,-16.3 21.6,0 38.6,7.5 50.9,22.4 12.3,14.9 19.3,35 21.1,60.2 l 14,173.9 c 2.4,22.2 11.1,39.8 26.4,52.7 15.2,12.9 34.8,19.3 58.8,19.3 24.6,0 43.2,-6.4 55.8,-19.3"
         style="fill:#b71c2d;fill-opacity:1;fill-rule:nonzero;stroke:none"
         id="path212" />
    </g>
    <g
       id="g214"
       transform="matrix(0.12386768,0,0,-0.12386768,-1501.7966,1740.5928)">
      <path
         d="m 15952.8,13166.5 c -14.3,6.3 -25,14.7 -32.1,25.3 -7.1,10.5 -10.7,21.8 -10.7,33.7 0,14.8 4.7,27.8 14.1,38.9 9.4,11.2 21.2,16.7 35.5,16.7 8.5,0 18,-2.5 28.2,-7.7 18.3,-8.5 38.6,-15.4 61.2,-20.5 22.5,-5.1 43.7,-7.7 63.7,-7.7 16.5,0 29.2,2 38.1,6 8.8,4 13.2,10 13.2,18 0,9.1 -5.7,16.2 -17.1,21.3 -11.4,5.2 -29.9,11.4 -55.6,18.8 -31.4,8.6 -57.3,17.2 -77.8,25.7 -20.5,8.6 -38.2,21.7 -53,39.3 -14.9,17.7 -22,40.5 -21.4,68.5 0.5,26.2 9.1,49.6 25.6,70.1 16.6,20.5 40.1,36.5 70.6,47.9 30.5,11.4 65.7,17.1 105.6,17.1 18.3,0 39.4,-2.4 63.3,-7.3 23.9,-4.8 43.9,-10.7 59.9,-17.5 11.9,-6.3 20.9,-14.5 26.9,-24.8 6,-10.3 9,-21.1 9,-32.5 0,-14.3 -4.4,-26.7 -13.3,-37.2 -8.8,-10.6 -19.8,-15.8 -32.9,-15.8 -8.5,0 -16.8,2 -24.8,6 -32.5,15.9 -66.4,23.9 -101.8,23.9 -17.6,0 -31.2,-2.1 -40.6,-6.4 -9.4,-4.3 -14.1,-10.1 -14.1,-17.5 0,-9.2 5.8,-16.6 17.5,-22.3 11.7,-5.7 30.4,-11.9 56,-18.8 30.9,-8.6 56.3,-17.1 76.6,-25.6 20.2,-8.6 37.9,-21.3 53,-38.1 15.1,-16.9 22.7,-38.9 22.7,-66.3 0,-43.3 -17.3,-77.1 -51.8,-101.4 -34.5,-24.2 -83.6,-36.3 -147.5,-36.3 -53,0 -101.8,8.8 -146.2,26.5"
         style="fill:#b71c2d;fill-opacity:1;fill-rule:nonzero;stroke:none"
         id="path216" />
    </g>
    <g
       id="g218"
       transform="matrix(0.1267467,0,0,-0.1267467,-1501.7966,1740.5928)">
      <path
         d="m 16276.6,12938.5 c 6.1,-8.4 9.2,-19.2 9.2,-32.6 0,-24 -7.7,-40.7 -23,-50.2 -15.3,-9.4 -41.9,-14.2 -79.8,-14.2 -51.8,0 -91.4,12.7 -118.7,38 -27.3,25.4 -41,62.3 -41,110.8 0,11.1 0.3,19.5 0.9,25.1 l 10.9,134.5 h -24.3 c -20.1,0 -35.7,4.5 -46.8,13.4 -11.2,8.9 -16.7,21.7 -16.7,38.5 0,38.4 24.2,57.6 72.7,57.6 h 24.2 l 4.2,54.4 c 1.7,21.7 9.8,38.7 24.3,51 14.4,12.2 33.1,18.4 56,18.4 22.8,0 40.3,-6.2 52.6,-18.4 12.3,-12.3 17.6,-29 15.9,-50.2 l -4.2,-55.2 h 45.2 c 19.4,0 34.6,-4.4 45.5,-13.3 10.9,-9 16.3,-21.5 16.3,-37.7 0,-20 -5.7,-34.8 -17.1,-44.2 -11.5,-9.5 -29.4,-14.3 -53.9,-14.3 h -45.2 l -10.9,-135.4 c -0.5,-3.3 -0.8,-7.8 -0.8,-13.3 0,-35.1 15.3,-52.7 46,-52.7 l 16.7,0.8 c 8.9,1.2 15,1.7 18.4,1.7 9.5,0 17.3,-4.2 23.4,-12.5"
         style="fill:#b71c2d;fill-opacity:1;fill-rule:nonzero;stroke:none"
         id="path220" />
    </g>
    <g
       id="g222"
       transform="matrix(0.10470409,0,0,-0.10470409,-1501.7966,1740.5928)">
      <path
         d="m 15000.2,15822.1 100.4,238 c 6.9,17.3 17.6,30.4 32.1,39.4 14.5,8.9 30,13.4 46.5,13.4 16.6,0 32.1,-4.5 46.6,-13.4 14.5,-9 25.2,-22.1 32.1,-39.4 l 103.5,-239 155.5,374.8 c -51.8,64 -130.9,104.1 -218,104.1 -45.9,0 -90.7,-11.2 -130.9,-32.4 -40.1,21.2 -84.9,32.4 -130.8,32.4 -78.6,0 -150.6,-32.6 -202,-86 l 165,-391.9"
         style="fill:#b71c2d;fill-opacity:1;fill-rule:nonzero;stroke:none"
         id="path224" />
    </g>
    <g
       id="g226"
       transform="matrix(0.1033914,0,0,-0.1033914,-1501.7966,1740.5928)">
      <path
         d="m 15846.1,16295.9 -209,-456.3 c -7.7,-17.5 -19.4,-30.9 -35.1,-40.3 -15.7,-9.4 -33,-14.1 -51.9,-14.1 -18.8,0 -36,4.7 -51.4,14.1 -15.3,9.4 -26.8,22.8 -34.5,40.3 l -99.6,221.1 -93.2,-221.1 c -7,-17.5 -18.4,-30.9 -34.1,-40.3 -15.7,-9.4 -33,-14.1 -51.8,-14.1 -18.9,0 -36.2,4.7 -51.9,14.1 -15.7,9.4 -27.8,22.8 -36.2,40.3 l -208.5,460.4 c -120.6,-32.7 -209.6,-143.1 -209.6,-273.9 0,-156.5 127.3,-283.8 283.8,-283.8 h 795 c 156.5,0 283.8,127.3 283.8,283.8 0,125.7 -82.3,232.7 -195.8,269.8"
         style="fill:#b71c2d;fill-opacity:1;fill-rule:nonzero;stroke:none"
         id="path228" />
    </g>
  </g>
</svg>
