<?xml version="1.0" encoding="UTF-8" standalone="no"?>
<svg
   xmlns:dc="http://purl.org/dc/elements/1.1/"
   xmlns:cc="http://creativecommons.org/ns#"
   xmlns:rdf="http://www.w3.org/1999/02/22-rdf-syntax-ns#"
   xmlns:svg="http://www.w3.org/2000/svg"
   xmlns="http://www.w3.org/2000/svg"
   width="580mm"
   height="150mm"
   viewBox="0 0 580 150"
   version="1.1"
   id="svg977">
  <defs
     id="defs971" />
  <metadata
     id="metadata974">
    <rdf:RDF>
      <cc:Work
         rdf:about="">
        <dc:format>image/svg+xml</dc:format>
        <dc:type
           rdf:resource="http://purl.org/dc/dcmitype/StillImage" />
        <dc:title></dc:title>
      </cc:Work>
    </rdf:RDF>
  </metadata>
  <g
     id="g14"
     transform="matrix(0.152388,0,0,-0.152388,-2223.6711,1736.6516)">
    <path
       d="m 16212.1,11027 c 9.9,6 20.5,9 31.6,9 14.8,0 27.9,-4.6 39.3,-13.9 11.3,-9.3 17,-21.1 17,-35.5 0,-8.8 -2.3,-17.8 -6.9,-27.1 l -124.5,-242.6 c -5.6,-11.1 -14.5,-19.8 -26.7,-26 -12.3,-6.3 -25.4,-9.4 -39.3,-9.4 -13.9,0 -26.3,3 -37.2,9 -10.9,6 -18,14.6 -21.2,25.7 l -45.2,139.1 -64.7,-138.4 c -5.5,-11.6 -14.2,-20.4 -26,-26.4 -11.9,-6 -25,-9 -39.3,-9 -13.9,0 -26.4,3 -37.6,9 -11.1,6 -18.5,14.6 -22.2,25.7 l -83.4,243.3 c -2.3,7.9 -3.5,14.4 -3.5,19.5 0,16.7 6.7,30.5 20.2,41.4 13.4,10.9 28.5,16.3 45.1,16.3 11.2,0 21.1,-3 30,-9 8.8,-6.1 15,-14.9 18.7,-26.4 l 50.1,-166.9 77.8,166.2 c 5.1,11.1 12.4,19.7 21.9,25.7 9.5,6 19.6,9 30.3,9 10.2,0 19.6,-3 28.1,-9 8.6,-6 14.5,-14.6 17.7,-25.7 l 50.1,-166.9 77.2,166.9 c 5.1,11.5 12.6,20.4 22.6,26.4"
       style="fill:#ffffff;fill-opacity:1;fill-rule:nonzero;stroke:none"
       id="path16" />
  </g>
  <g
     id="g18"
     transform="matrix(0.15565084,0,0,-0.15565084,-2223.6711,1736.6516)">
    <path
       d="m 16111.1,10709 c -9.7,-9.7 -16.2,-24.8 -19.4,-45.2 h 108.2 c -0.4,19.5 -4.8,34.4 -13.2,44.6 -8.4,10.2 -20.6,15.3 -36.4,15.3 -16.4,0 -29.4,-4.9 -39.2,-14.7 z m 180.4,-93.9 c -5.7,-5.7 -13.5,-8.5 -23.5,-8.5 h -177.6 c 5.4,-40.8 30.1,-61.3 74.2,-61.3 13.1,0 24,1.3 32.6,3.8 8.6,2.5 20,6.7 34.1,12.6 8.1,3.6 15.1,5.4 21.1,5.4 9.9,0 17.8,-3.8 23.4,-11.6 5.7,-7.7 8.5,-17 8.5,-27.9 0,-9.5 -2,-18.6 -6.1,-27.2 -4.1,-8.6 -10.4,-15.4 -19,-20.4 -11.9,-6.8 -26.9,-12.4 -45.3,-16.7 -18.4,-4.3 -37.8,-6.4 -58.2,-6.4 -35.8,0 -67.5,6.8 -94.9,20.4 -27.5,13.6 -48.8,32.8 -64,57.5 -15.2,24.7 -22.8,53.7 -22.8,86.8 0,34.9 7.3,66.3 22.1,94.3 14.7,27.9 35.3,49.7 61.6,65.6 26.3,15.9 55.8,23.8 88.5,23.8 48.5,0 86.3,-14.6 113.3,-43.9 27,-29.2 40.5,-70.2 40.5,-122.8 0,-10 -2.9,-17.8 -8.5,-23.5"
       style="fill:#ffffff;fill-opacity:1;fill-rule:nonzero;stroke:none"
       id="path20" />
  </g>
  <g
     id="g22"
     transform="matrix(0.15849106,0,0,-0.15849106,-2223.6711,1736.6516)">
    <path
       d="m 16281.3,10347 c 4.9,-6.7 7.3,-15.4 7.3,-26.1 0,-19.1 -6.1,-32.5 -18.4,-40 -12.2,-7.6 -33.5,-11.4 -63.8,-11.4 -41.4,0 -73.1,10.1 -94.9,30.4 -21.8,20.3 -32.7,49.8 -32.7,88.5 0,9 0.2,15.7 0.6,20.1 l 8.7,107.6 h -19.4 c -16,0 -28.5,3.6 -37.4,10.7 -8.9,7.2 -13.4,17.4 -13.4,30.8 0,30.7 19.4,46.1 58.2,46.1 h 19.3 l 3.4,43.4 c 1.3,17.4 7.8,31 19.4,40.8 11.6,9.8 26.5,14.7 44.8,14.7 18.2,0 32.3,-4.9 42.1,-14.7 9.8,-9.8 14,-23.2 12.7,-40.1 l -3.4,-44.1 h 36.1 c 15.6,0 27.8,-3.6 36.5,-10.7 8.6,-7.1 13,-17.2 13,-30.1 0,-16 -4.6,-27.8 -13.7,-35.4 -9.2,-7.6 -23.5,-11.4 -43.1,-11.4 h -36.1 l -8.7,-108.3 c -0.5,-2.6 -0.7,-6.2 -0.7,-10.6 0,-28.1 12.3,-42.2 36.8,-42.2 l 13.3,0.7 c 7.2,0.9 12.1,1.3 14.8,1.3 7.5,0 13.8,-3.3 18.7,-10"
       style="fill:#ffffff;fill-opacity:1;fill-rule:nonzero;stroke:none"
       id="path24" />
  </g>
  <g
     id="g26"
     transform="matrix(0.16134856,0,0,-0.16134856,-2223.6711,1736.6516)">
    <path
       d="m 16288.7,10412 c 8.1,-7.9 11.3,-19.7 9.6,-35.5 -1.8,-17.5 -7,-30.2 -15.8,-38.1 -8.8,-7.8 -24.1,-12.9 -46,-15.1 l -17.7,-1.9 c -24.5,-3.1 -41.4,-9.3 -50.5,-18.7 -9.2,-9.5 -14.9,-25.3 -17.1,-47.6 l -9.2,-112.3 c -1.3,-17.5 -7.8,-30.9 -19.4,-40.1 -11.6,-9.2 -25.7,-13.8 -42.3,-13.8 -16.7,0 -30.3,4.6 -41.1,13.8 -10.7,9.2 -15.4,22.6 -14.1,40.1 l 18.4,226.5 c 1.8,17.1 8.6,30.2 20.7,39.4 12,9.2 25.9,13.8 41.7,13.8 15.3,0 27.4,-4.3 36.4,-12.8 9,-8.6 13.3,-20.7 12.8,-36.5 12.3,14.5 26.8,26 43.7,34.5 16.8,8.5 33.2,13.2 48.9,14.1 l 7.9,0.7 c 14,0.8 25,-2.7 33.1,-10.5"
       style="fill:#ffffff;fill-opacity:1;fill-rule:nonzero;stroke:none"
       id="path28" />
  </g>
  <g
     id="g30"
     transform="matrix(0.16476697,0,0,-0.16476697,-2223.6711,1736.6516)">
    <path
       d="m 16287,10192.1 c 9.3,-9.5 13,-22.3 11.3,-38.6 l -17.4,-221.81 c -1.3,-15.44 -7.4,-27.98 -18.3,-37.62 -10.9,-9.66 -25.2,-14.47 -42.8,-14.47 -14.5,0 -26.3,3.64 -35.3,10.94 -9,7.28 -13.9,17.13 -14.8,29.57 -11.2,-12.87 -25.4,-23.04 -42.8,-30.54 -17.3,-7.49 -36.1,-11.26 -56.2,-11.26 -34.3,0 -60.5,9.74 -78.5,29.25 -18,19.5 -27,47.92 -27,85.19 0,4.71 0.5,12.25 1.3,22.55 l 10.9,138.2 c 1.3,16.3 7.5,29.1 18.7,38.6 11.1,9.4 25.7,14.1 43.7,14.1 17.6,0 31,-4.7 40.2,-14.1 9.2,-9.5 13.2,-22.3 11.9,-38.6 l -10.9,-131.8 -0.7,-9.7 c 0,-14.97 3.5,-26.42 10.3,-34.34 6.9,-7.95 16.9,-11.91 30.2,-11.91 15.9,0 28.3,5.46 37.3,16.4 9,10.92 14.2,25.65 15.4,44.05 l 10.3,127.3 c 1.8,16.3 8.2,29.1 19.3,38.6 11.2,9.4 25.5,14.1 43.1,14.1 18,0 31.6,-4.7 40.8,-14.1"
       style="fill:#ffffff;fill-opacity:1;fill-rule:nonzero;stroke:none"
       id="path32" />
  </g>
  <g
     id="g34"
     transform="matrix(0.16801888,0,0,-0.16801888,-2223.6711,1736.6516)">
    <path
       d="m 16044,9706.68 c -10.5,4.61 -18.4,10.81 -23.7,18.6 -5.2,7.77 -7.8,16.08 -7.8,24.9 0,10.92 3.4,20.49 10.4,28.68 6.9,8.21 15.6,12.3 26.2,12.3 6.3,0 13.2,-1.88 20.8,-5.67 13.4,-6.31 28.4,-11.35 45,-15.13 16.6,-3.78 32.3,-5.67 47,-5.67 12.2,0 21.5,1.47 28.1,4.41 6.5,2.94 9.7,7.35 9.7,13.25 0,6.71 -4.2,11.96 -12.6,15.74 -8.4,3.8 -22,8.42 -40.9,13.88 -23.2,6.3 -42.3,12.62 -57.4,18.92 -15.2,6.3 -28.2,15.98 -39.1,29 -11,13.03 -16.2,29.85 -15.8,50.45 0.4,19.32 6.7,36.55 18.9,51.69 12.2,15.14 29.6,26.9 52.1,35.32 22.4,8.35 48.4,12.55 77.8,12.55 13.5,0 29,-1.7 46.7,-5.3 17.6,-3.6 32.3,-7.88 44.1,-12.92 8.8,-4.64 15.5,-10.73 19.9,-18.29 4.4,-7.58 6.6,-15.56 6.6,-23.96 0,-10.52 -3.3,-19.67 -9.8,-27.44 -6.5,-7.77 -14.6,-11.65 -24.3,-11.65 -6.3,0 -12.4,1.47 -18.2,4.41 -24,11.76 -49,17.66 -75.1,17.66 -13,0 -23,-1.58 -29.9,-4.75 -7,-3.15 -10.4,-7.45 -10.4,-12.91 0,-6.74 4.3,-12.2 12.9,-16.4 8.6,-4.2 22.4,-8.82 41.3,-13.86 22.7,-6.32 41.5,-12.62 56.4,-18.91 15,-6.32 28,-15.67 39.1,-28.08 11.2,-12.41 16.7,-28.68 16.7,-48.86 0,-31.95 -12.7,-56.85 -38.1,-74.72 -25.5,-17.87 -61.7,-26.79 -108.8,-26.79 -39.1,0 -75,6.51 -107.8,19.55"
       style="fill:#ffffff;fill-opacity:1;fill-rule:nonzero;stroke:none"
       id="path36" />
  </g>
  <g
     id="g38"
     transform="matrix(0.17089825,0,0,-0.17089825,-2223.6711,1736.6516)">
    <path
       d="m 16282.6,9595.85 c 4.6,-6.22 6.9,-14.27 6.9,-24.2 0,-17.77 -5.7,-30.16 -17.1,-37.17 -11.4,-7.04 -31.1,-10.55 -59.2,-10.55 -38.4,0 -67.8,9.39 -88,28.19 -20.3,18.81 -30.4,46.2 -30.4,82.14 0,8.28 0.2,14.47 0.6,18.6 l 8.1,99.81 h -18 c -14.9,0 -26.4,3.3 -34.7,9.93 -8.3,6.6 -12.4,16.1 -12.4,28.5 0,28.51 18,42.78 53.9,42.78 h 18 l 3.1,40.29 c 1.2,16.12 7.2,28.71 18,37.82 10.7,9.08 24.6,13.64 41.5,13.64 17,0 30,-4.56 39.1,-13.64 9.1,-9.11 13,-21.49 11.7,-37.2 l -3.1,-40.91 h 33.5 c 14.5,0 25.8,-3.31 33.8,-9.91 8.1,-6.63 12.1,-15.92 12.1,-27.91 0,-14.86 -4.2,-25.83 -12.7,-32.84 -8.5,-7.04 -21.8,-10.55 -40,-10.55 h -33.5 l -8,-100.43 c -0.4,-2.48 -0.7,-5.78 -0.7,-9.91 0,-26.03 11.4,-39.05 34.1,-39.05 l 12.5,0.62 c 6.6,0.82 11.1,1.24 13.6,1.24 7,0 12.8,-3.1 17.3,-9.29"
       style="fill:#ffffff;fill-opacity:1;fill-rule:nonzero;stroke:none"
       id="path40" />
  </g>
  <g
     id="g42"
     transform="matrix(0.14382538,0,0,-0.14382538,-2223.6711,1736.6516)">
    <path
       d="m 15923.8,11518.4 73.1,173.3 c 5,12.5 12.8,22.1 23.4,28.6 10.5,6.5 21.8,9.8 33.9,9.8 12,0 23.3,-3.3 33.9,-9.8 10.5,-6.5 18.3,-16.1 23.3,-28.6 l 75.4,-174 113.2,272.8 c -37.7,46.6 -95.3,75.8 -158.7,75.8 -33.5,0 -66.1,-8.1 -95.3,-23.6 -29.3,15.5 -61.8,23.6 -95.3,23.6 -57.2,0 -109.6,-23.7 -147,-62.6 l 120.1,-285.3"
       style="fill:#ffffff;fill-opacity:1;fill-rule:nonzero;stroke:none"
       id="path44" />
  </g>
  <g
     id="g46"
     transform="matrix(0.14590571,0,0,-0.14590571,-2223.6711,1736.6516)">
    <path
       d="m 16161.3,11547.6 -148.2,-323.3 c -5.4,-12.4 -13.7,-21.9 -24.8,-28.6 -11.2,-6.7 -23.4,-10 -36.8,-10 -13.3,0 -25.5,3.3 -36.4,10 -10.9,6.7 -19,16.2 -24.5,28.6 l -70.5,156.7 -66.1,-156.7 c -5,-12.4 -13,-21.9 -24.1,-28.6 -11.2,-6.7 -23.4,-10 -36.8,-10 -13.3,0 -25.6,3.3 -36.8,10 -11.1,6.7 -19.6,16.2 -25.6,28.6 l -147.7,326.2 c -85.5,-23.2 -148.5,-101.4 -148.5,-194.1 0,-110.9 90.2,-201.1 201,-201.1 h 563.4 c 110.9,0 201.1,90.2 201.1,201.1 0,89.1 -58.3,164.9 -138.7,191.2"
       style="fill:#ffffff;fill-opacity:1;fill-rule:nonzero;stroke:none"
       id="path48" />
  </g>
</svg>
