<?xml version="1.0" encoding="UTF-8" standalone="no"?>
<svg
   xmlns:dc="http://purl.org/dc/elements/1.1/"
   xmlns:cc="http://creativecommons.org/ns#"
   xmlns:rdf="http://www.w3.org/1999/02/22-rdf-syntax-ns#"
   xmlns:svg="http://www.w3.org/2000/svg"
   xmlns="http://www.w3.org/2000/svg"
   width="150mm"
   height="150mm"
   viewBox="0 0 150 150"
   version="1.1"
   id="svg977">
  <defs
     id="defs971" />
  <metadata
     id="metadata974">
    <rdf:RDF>
      <cc:Work
         rdf:about="">
        <dc:format>image/svg+xml</dc:format>
        <dc:type
           rdf:resource="http://purl.org/dc/dcmitype/StillImage" />
        <dc:title></dc:title>
      </cc:Work>
    </rdf:RDF>
  </metadata>
  <g
     id="layer1">
    <g
       id="g222"
       transform="matrix(0.10470409,0,0,-0.10470409,-1501.7966,1740.5928)">
      <path
         d="m 15000.2,15822.1 100.4,238 c 6.9,17.3 17.6,30.4 32.1,39.4 14.5,8.9 30,13.4 46.5,13.4 16.6,0 32.1,-4.5 46.6,-13.4 14.5,-9 25.2,-22.1 32.1,-39.4 l 103.5,-239 155.5,374.8 c -51.8,64 -130.9,104.1 -218,104.1 -45.9,0 -90.7,-11.2 -130.9,-32.4 -40.1,21.2 -84.9,32.4 -130.8,32.4 -78.6,0 -150.6,-32.6 -202,-86 l 165,-391.9"
         style="fill:#b71c2d;fill-opacity:1;fill-rule:nonzero;stroke:none"
         id="path224" />
    </g>
    <g
       id="g226"
       transform="matrix(0.1033914,0,0,-0.1033914,-1501.7966,1740.5928)">
      <path
         d="m 15846.1,16295.9 -209,-456.3 c -7.7,-17.5 -19.4,-30.9 -35.1,-40.3 -15.7,-9.4 -33,-14.1 -51.9,-14.1 -18.8,0 -36,4.7 -51.4,14.1 -15.3,9.4 -26.8,22.8 -34.5,40.3 l -99.6,221.1 -93.2,-221.1 c -7,-17.5 -18.4,-30.9 -34.1,-40.3 -15.7,-9.4 -33,-14.1 -51.8,-14.1 -18.9,0 -36.2,4.7 -51.9,14.1 -15.7,9.4 -27.8,22.8 -36.2,40.3 l -208.5,460.4 c -120.6,-32.7 -209.6,-143.1 -209.6,-273.9 0,-156.5 127.3,-283.8 283.8,-283.8 h 795 c 156.5,0 283.8,127.3 283.8,283.8 0,125.7 -82.3,232.7 -195.8,269.8"
         style="fill:#b71c2d;fill-opacity:1;fill-rule:nonzero;stroke:none"
         id="path228" />
    </g>
  </g>
</svg>
